<mxfile host="app.diagrams.net" agent="Mozilla/5.0 (X11; Linux x86_64) AppleWebKit/537.36 (KHTML, like Gecko) Chrome/141.0.0.0 Safari/537.36" version="28.2.7">
  <diagram name="Página-1" id="hFe_txsJEGTY_431R43J">
    <mxGraphModel dx="1175" dy="1352" grid="1" gridSize="10" guides="1" tooltips="1" connect="1" arrows="1" fold="1" page="1" pageScale="1" pageWidth="827" pageHeight="1169" math="0" shadow="0">
      <root>
        <mxCell id="0" />
        <mxCell id="1" parent="0" />
        <mxCell id="b-hoQS2coKFhY6Zg3zWE-1" value="Usuario" style="shape=umlActor;verticalLabelPosition=bottom;verticalAlign=top;html=1;outlineConnect=0;" vertex="1" parent="1">
          <mxGeometry x="80" y="210" width="30" height="60" as="geometry" />
        </mxCell>
        <mxCell id="b-hoQS2coKFhY6Zg3zWE-2" value="Listar Articulo" style="ellipse;whiteSpace=wrap;html=1;" vertex="1" parent="1">
          <mxGeometry x="140" y="80" width="120" height="80" as="geometry" />
        </mxCell>
        <mxCell id="b-hoQS2coKFhY6Zg3zWE-3" value="Filtrar" style="ellipse;whiteSpace=wrap;html=1;" vertex="1" parent="1">
          <mxGeometry x="414" y="10" width="120" height="80" as="geometry" />
        </mxCell>
        <mxCell id="b-hoQS2coKFhY6Zg3zWE-4" value="" style="endArrow=none;html=1;rounded=0;fontSize=12;startSize=8;endSize=8;curved=1;entryX=0;entryY=0.5;entryDx=0;entryDy=0;" edge="1" parent="1" source="b-hoQS2coKFhY6Zg3zWE-1" target="b-hoQS2coKFhY6Zg3zWE-2">
          <mxGeometry width="50" height="50" relative="1" as="geometry">
            <mxPoint x="340" y="220" as="sourcePoint" />
            <mxPoint x="390" y="170" as="targetPoint" />
          </mxGeometry>
        </mxCell>
        <mxCell id="b-hoQS2coKFhY6Zg3zWE-5" value="Publicar articulo" style="ellipse;whiteSpace=wrap;html=1;" vertex="1" parent="1">
          <mxGeometry x="230" y="160" width="120" height="80" as="geometry" />
        </mxCell>
        <mxCell id="b-hoQS2coKFhY6Zg3zWE-6" value="Comentar articulo" style="ellipse;whiteSpace=wrap;html=1;" vertex="1" parent="1">
          <mxGeometry x="230" y="270" width="120" height="80" as="geometry" />
        </mxCell>
        <mxCell id="b-hoQS2coKFhY6Zg3zWE-7" value="Registrarse" style="ellipse;whiteSpace=wrap;html=1;" vertex="1" parent="1">
          <mxGeometry x="470" y="110" width="120" height="80" as="geometry" />
        </mxCell>
        <mxCell id="b-hoQS2coKFhY6Zg3zWE-8" value="" style="endArrow=none;html=1;rounded=0;fontSize=12;startSize=8;endSize=8;curved=1;exitX=1;exitY=0.3333333333333333;exitDx=0;exitDy=0;exitPerimeter=0;entryX=0;entryY=0.5;entryDx=0;entryDy=0;" edge="1" parent="1" source="b-hoQS2coKFhY6Zg3zWE-1" target="b-hoQS2coKFhY6Zg3zWE-5">
          <mxGeometry width="50" height="50" relative="1" as="geometry">
            <mxPoint x="380" y="300" as="sourcePoint" />
            <mxPoint x="430" y="250" as="targetPoint" />
          </mxGeometry>
        </mxCell>
        <mxCell id="b-hoQS2coKFhY6Zg3zWE-9" value="" style="endArrow=none;html=1;rounded=0;fontSize=12;startSize=8;endSize=8;curved=1;entryX=0;entryY=0.5;entryDx=0;entryDy=0;" edge="1" parent="1" source="b-hoQS2coKFhY6Zg3zWE-1" target="b-hoQS2coKFhY6Zg3zWE-6">
          <mxGeometry width="50" height="50" relative="1" as="geometry">
            <mxPoint x="170" y="290" as="sourcePoint" />
            <mxPoint x="250" y="280" as="targetPoint" />
          </mxGeometry>
        </mxCell>
        <mxCell id="b-hoQS2coKFhY6Zg3zWE-10" value="" style="endArrow=classic;html=1;rounded=0;fontSize=12;startSize=8;endSize=8;curved=1;entryX=1;entryY=0.5;entryDx=0;entryDy=0;exitX=0;exitY=0.5;exitDx=0;exitDy=0;" edge="1" parent="1" source="b-hoQS2coKFhY6Zg3zWE-3" target="b-hoQS2coKFhY6Zg3zWE-2">
          <mxGeometry width="50" height="50" relative="1" as="geometry">
            <mxPoint x="380" y="300" as="sourcePoint" />
            <mxPoint x="430" y="250" as="targetPoint" />
          </mxGeometry>
        </mxCell>
        <mxCell id="b-hoQS2coKFhY6Zg3zWE-11" value="extend" style="edgeLabel;html=1;align=center;verticalAlign=middle;resizable=0;points=[];fontSize=12;rotation=-25;" vertex="1" connectable="0" parent="b-hoQS2coKFhY6Zg3zWE-10">
          <mxGeometry x="-0.2153" y="-4" relative="1" as="geometry">
            <mxPoint x="-12" y="6" as="offset" />
          </mxGeometry>
        </mxCell>
        <mxCell id="b-hoQS2coKFhY6Zg3zWE-12" value="" style="endArrow=classic;html=1;rounded=0;fontSize=12;startSize=8;endSize=8;curved=1;exitX=1;exitY=0.5;exitDx=0;exitDy=0;entryX=0;entryY=0.5;entryDx=0;entryDy=0;" edge="1" parent="1" source="b-hoQS2coKFhY6Zg3zWE-5" target="b-hoQS2coKFhY6Zg3zWE-7">
          <mxGeometry width="50" height="50" relative="1" as="geometry">
            <mxPoint x="554" y="180" as="sourcePoint" />
            <mxPoint x="400" y="250" as="targetPoint" />
          </mxGeometry>
        </mxCell>
        <mxCell id="b-hoQS2coKFhY6Zg3zWE-13" value="include" style="edgeLabel;html=1;align=center;verticalAlign=middle;resizable=0;points=[];fontSize=12;rotation=-25;" vertex="1" connectable="0" parent="b-hoQS2coKFhY6Zg3zWE-12">
          <mxGeometry x="-0.2153" y="-4" relative="1" as="geometry">
            <mxPoint x="6" y="-6" as="offset" />
          </mxGeometry>
        </mxCell>
        <mxCell id="b-hoQS2coKFhY6Zg3zWE-14" value="" style="endArrow=classic;html=1;rounded=0;fontSize=12;startSize=8;endSize=8;curved=1;entryX=0;entryY=0.5;entryDx=0;entryDy=0;exitX=1;exitY=0.5;exitDx=0;exitDy=0;" edge="1" parent="1" source="b-hoQS2coKFhY6Zg3zWE-6" target="b-hoQS2coKFhY6Zg3zWE-7">
          <mxGeometry width="50" height="50" relative="1" as="geometry">
            <mxPoint x="564" y="200" as="sourcePoint" />
            <mxPoint x="410" y="270" as="targetPoint" />
          </mxGeometry>
        </mxCell>
        <mxCell id="b-hoQS2coKFhY6Zg3zWE-15" value="include" style="edgeLabel;html=1;align=center;verticalAlign=middle;resizable=0;points=[];fontSize=12;rotation=-55;" vertex="1" connectable="0" parent="b-hoQS2coKFhY6Zg3zWE-14">
          <mxGeometry x="-0.2153" y="-4" relative="1" as="geometry">
            <mxPoint x="7" y="-8" as="offset" />
          </mxGeometry>
        </mxCell>
        <mxCell id="b-hoQS2coKFhY6Zg3zWE-16" value="Aviso" style="ellipse;whiteSpace=wrap;html=1;" vertex="1" parent="1">
          <mxGeometry x="490" y="280" width="120" height="80" as="geometry" />
        </mxCell>
        <mxCell id="b-hoQS2coKFhY6Zg3zWE-17" value="" style="endArrow=classic;html=1;rounded=0;fontSize=12;startSize=8;endSize=8;curved=1;entryX=0;entryY=0.5;entryDx=0;entryDy=0;" edge="1" parent="1" source="b-hoQS2coKFhY6Zg3zWE-6" target="b-hoQS2coKFhY6Zg3zWE-16">
          <mxGeometry width="50" height="50" relative="1" as="geometry">
            <mxPoint x="390" y="560" as="sourcePoint" />
            <mxPoint x="510" y="400" as="targetPoint" />
          </mxGeometry>
        </mxCell>
        <mxCell id="b-hoQS2coKFhY6Zg3zWE-18" value="include" style="edgeLabel;html=1;align=center;verticalAlign=middle;resizable=0;points=[];fontSize=12;rotation=5;" vertex="1" connectable="0" parent="b-hoQS2coKFhY6Zg3zWE-17">
          <mxGeometry x="-0.2153" y="-4" relative="1" as="geometry">
            <mxPoint x="7" y="-8" as="offset" />
          </mxGeometry>
        </mxCell>
        <mxCell id="b-hoQS2coKFhY6Zg3zWE-19" value="&lt;font style=&quot;vertical-align: inherit;&quot; dir=&quot;auto&quot;&gt;&lt;font style=&quot;vertical-align: inherit;&quot; dir=&quot;auto&quot;&gt;Aplicación&lt;/font&gt;&lt;/font&gt;" style="shape=umlActor;verticalLabelPosition=bottom;verticalAlign=top;html=1;outlineConnect=0;" vertex="1" parent="1">
          <mxGeometry x="680" y="260" width="30" height="60" as="geometry" />
        </mxCell>
        <mxCell id="b-hoQS2coKFhY6Zg3zWE-20" value="" style="endArrow=none;html=1;rounded=0;fontSize=12;startSize=8;endSize=8;curved=1;exitX=1;exitY=0.5;exitDx=0;exitDy=0;" edge="1" parent="1" source="b-hoQS2coKFhY6Zg3zWE-16" target="b-hoQS2coKFhY6Zg3zWE-19">
          <mxGeometry width="50" height="50" relative="1" as="geometry">
            <mxPoint x="520" y="270" as="sourcePoint" />
            <mxPoint x="640" y="240" as="targetPoint" />
          </mxGeometry>
        </mxCell>
        <mxCell id="b-hoQS2coKFhY6Zg3zWE-21" value="Vendedor" style="shape=umlActor;verticalLabelPosition=bottom;verticalAlign=top;html=1;outlineConnect=0;" vertex="1" parent="1">
          <mxGeometry x="690" y="160" width="30" height="60" as="geometry" />
        </mxCell>
        <mxCell id="b-hoQS2coKFhY6Zg3zWE-22" value="" style="endArrow=none;html=1;rounded=0;fontSize=12;startSize=8;endSize=8;curved=1;" edge="1" parent="1" source="b-hoQS2coKFhY6Zg3zWE-16" target="b-hoQS2coKFhY6Zg3zWE-21">
          <mxGeometry width="50" height="50" relative="1" as="geometry">
            <mxPoint x="630" y="250" as="sourcePoint" />
            <mxPoint x="730" y="302" as="targetPoint" />
          </mxGeometry>
        </mxCell>
        <mxCell id="b-hoQS2coKFhY6Zg3zWE-23" value="Vendedor" style="shape=umlActor;verticalLabelPosition=bottom;verticalAlign=top;html=1;outlineConnect=0;" vertex="1" parent="1">
          <mxGeometry x="60" y="490" width="30" height="60" as="geometry" />
        </mxCell>
        <mxCell id="b-hoQS2coKFhY6Zg3zWE-24" value="Comprador" style="shape=umlActor;verticalLabelPosition=bottom;verticalAlign=top;html=1;outlineConnect=0;" vertex="1" parent="1">
          <mxGeometry x="100" y="380" width="30" height="60" as="geometry" />
        </mxCell>
        <mxCell id="b-hoQS2coKFhY6Zg3zWE-25" value="" style="endArrow=classic;html=1;rounded=0;fontSize=12;startSize=8;endSize=8;curved=1;exitX=0.5;exitY=0;exitDx=0;exitDy=0;exitPerimeter=0;entryX=1;entryY=1;entryDx=0;entryDy=0;entryPerimeter=0;" edge="1" parent="1" source="b-hoQS2coKFhY6Zg3zWE-24" target="b-hoQS2coKFhY6Zg3zWE-1">
          <mxGeometry width="50" height="50" relative="1" as="geometry">
            <mxPoint x="140" y="350" as="sourcePoint" />
            <mxPoint x="190" y="300" as="targetPoint" />
          </mxGeometry>
        </mxCell>
        <mxCell id="b-hoQS2coKFhY6Zg3zWE-26" value="" style="endArrow=classic;html=1;rounded=0;fontSize=12;startSize=8;endSize=8;curved=1;exitX=0.5;exitY=0;exitDx=0;exitDy=0;exitPerimeter=0;entryX=0;entryY=1;entryDx=0;entryDy=0;entryPerimeter=0;" edge="1" parent="1" source="b-hoQS2coKFhY6Zg3zWE-23" target="b-hoQS2coKFhY6Zg3zWE-1">
          <mxGeometry width="50" height="50" relative="1" as="geometry">
            <mxPoint x="225" y="560" as="sourcePoint" />
            <mxPoint x="200" y="460" as="targetPoint" />
          </mxGeometry>
        </mxCell>
        <mxCell id="b-hoQS2coKFhY6Zg3zWE-27" value="&lt;font style=&quot;vertical-align: inherit;&quot; dir=&quot;auto&quot;&gt;&lt;font style=&quot;vertical-align: inherit;&quot; dir=&quot;auto&quot;&gt;Mensaje&lt;/font&gt;&lt;/font&gt;" style="ellipse;whiteSpace=wrap;html=1;" vertex="1" parent="1">
          <mxGeometry x="480" y="460" width="120" height="80" as="geometry" />
        </mxCell>
        <mxCell id="b-hoQS2coKFhY6Zg3zWE-28" value="" style="endArrow=classic;html=1;rounded=0;fontSize=12;startSize=8;endSize=8;curved=1;entryX=0.361;entryY=0.05;entryDx=0;entryDy=0;entryPerimeter=0;exitX=1;exitY=0.3333333333333333;exitDx=0;exitDy=0;exitPerimeter=0;" edge="1" parent="1" source="b-hoQS2coKFhY6Zg3zWE-24" target="b-hoQS2coKFhY6Zg3zWE-27">
          <mxGeometry width="50" height="50" relative="1" as="geometry">
            <mxPoint x="250" y="450" as="sourcePoint" />
            <mxPoint x="370" y="400" as="targetPoint" />
            <Array as="points">
              <mxPoint x="380" y="360" />
            </Array>
          </mxGeometry>
        </mxCell>
        <mxCell id="b-hoQS2coKFhY6Zg3zWE-29" value="include" style="edgeLabel;html=1;align=center;verticalAlign=middle;resizable=0;points=[];fontSize=12;rotation=5;" vertex="1" connectable="0" parent="b-hoQS2coKFhY6Zg3zWE-28">
          <mxGeometry x="-0.2153" y="-4" relative="1" as="geometry">
            <mxPoint x="28" y="3" as="offset" />
          </mxGeometry>
        </mxCell>
        <mxCell id="b-hoQS2coKFhY6Zg3zWE-30" value="" style="endArrow=none;html=1;rounded=0;fontSize=12;startSize=8;endSize=8;curved=1;entryX=0;entryY=0.3333333333333333;entryDx=0;entryDy=0;entryPerimeter=0;exitX=1;exitY=0.5;exitDx=0;exitDy=0;" edge="1" parent="1" source="b-hoQS2coKFhY6Zg3zWE-35" target="b-hoQS2coKFhY6Zg3zWE-31">
          <mxGeometry width="50" height="50" relative="1" as="geometry">
            <mxPoint x="280" y="620" as="sourcePoint" />
            <mxPoint x="370" y="482" as="targetPoint" />
          </mxGeometry>
        </mxCell>
        <mxCell id="b-hoQS2coKFhY6Zg3zWE-31" value="Producto" style="shape=umlActor;verticalLabelPosition=bottom;verticalAlign=top;html=1;outlineConnect=0;" vertex="1" parent="1">
          <mxGeometry x="370" y="440" width="30" height="60" as="geometry" />
        </mxCell>
        <mxCell id="b-hoQS2coKFhY6Zg3zWE-32" value="" style="endArrow=none;html=1;rounded=0;fontSize=12;startSize=8;endSize=8;curved=1;entryX=1;entryY=1;entryDx=0;entryDy=0;entryPerimeter=0;" edge="1" parent="1" source="b-hoQS2coKFhY6Zg3zWE-27" target="b-hoQS2coKFhY6Zg3zWE-23">
          <mxGeometry width="50" height="50" relative="1" as="geometry">
            <mxPoint x="250" y="510" as="sourcePoint" />
            <mxPoint x="110" y="650" as="targetPoint" />
            <Array as="points">
              <mxPoint x="280" y="680" />
            </Array>
          </mxGeometry>
        </mxCell>
        <mxCell id="b-hoQS2coKFhY6Zg3zWE-33" value="" style="endArrow=classic;html=1;rounded=0;fontSize=12;startSize=8;endSize=8;curved=1;exitX=0;exitY=1;exitDx=0;exitDy=0;entryX=1;entryY=0.3333333333333333;entryDx=0;entryDy=0;entryPerimeter=0;" edge="1" parent="1" target="b-hoQS2coKFhY6Zg3zWE-23" source="b-hoQS2coKFhY6Zg3zWE-35">
          <mxGeometry width="50" height="50" relative="1" as="geometry">
            <mxPoint x="240" y="580" as="sourcePoint" />
            <mxPoint x="178" y="580" as="targetPoint" />
            <Array as="points" />
          </mxGeometry>
        </mxCell>
        <mxCell id="b-hoQS2coKFhY6Zg3zWE-34" value="extend" style="edgeLabel;html=1;align=center;verticalAlign=middle;resizable=0;points=[];fontSize=12;rotation=5;" vertex="1" connectable="0" parent="b-hoQS2coKFhY6Zg3zWE-33">
          <mxGeometry x="-0.2153" y="-4" relative="1" as="geometry">
            <mxPoint x="-12" y="6" as="offset" />
          </mxGeometry>
        </mxCell>
        <mxCell id="b-hoQS2coKFhY6Zg3zWE-35" value="Respuesta" style="ellipse;whiteSpace=wrap;html=1;" vertex="1" parent="1">
          <mxGeometry x="180" y="440" width="120" height="80" as="geometry" />
        </mxCell>
        <mxCell id="b-hoQS2coKFhY6Zg3zWE-40" value="" style="endArrow=none;html=1;rounded=0;fontSize=12;startSize=8;endSize=8;curved=1;entryX=0;entryY=0.5;entryDx=0;entryDy=0;exitX=1;exitY=0.3333333333333333;exitDx=0;exitDy=0;exitPerimeter=0;" edge="1" parent="1" source="b-hoQS2coKFhY6Zg3zWE-31" target="b-hoQS2coKFhY6Zg3zWE-27">
          <mxGeometry width="50" height="50" relative="1" as="geometry">
            <mxPoint x="460" y="660" as="sourcePoint" />
            <mxPoint x="530" y="640" as="targetPoint" />
          </mxGeometry>
        </mxCell>
        <mxCell id="b-hoQS2coKFhY6Zg3zWE-42" value="" style="endArrow=none;html=1;rounded=0;fontSize=12;startSize=8;endSize=8;curved=1;exitX=0.5;exitY=0;exitDx=0;exitDy=0;" edge="1" parent="1" source="b-hoQS2coKFhY6Zg3zWE-35" target="b-hoQS2coKFhY6Zg3zWE-24">
          <mxGeometry width="50" height="50" relative="1" as="geometry">
            <mxPoint x="260" y="560" as="sourcePoint" />
            <mxPoint x="330" y="540" as="targetPoint" />
          </mxGeometry>
        </mxCell>
        <mxCell id="b-hoQS2coKFhY6Zg3zWE-45" value="" style="endArrow=none;dashed=1;html=1;rounded=0;fontSize=12;startSize=8;endSize=8;curved=1;" edge="1" parent="1">
          <mxGeometry width="50" height="50" relative="1" as="geometry">
            <mxPoint x="30" y="360" as="sourcePoint" />
            <mxPoint x="870" y="370" as="targetPoint" />
          </mxGeometry>
        </mxCell>
        <mxCell id="b-hoQS2coKFhY6Zg3zWE-46" value="" style="endArrow=none;dashed=1;html=1;rounded=0;fontSize=12;startSize=8;endSize=8;curved=1;" edge="1" parent="1">
          <mxGeometry width="50" height="50" relative="1" as="geometry">
            <mxPoint y="640" as="sourcePoint" />
            <mxPoint x="840" y="650" as="targetPoint" />
          </mxGeometry>
        </mxCell>
        <mxCell id="b-hoQS2coKFhY6Zg3zWE-47" value="Usuario" style="shape=umlActor;verticalLabelPosition=bottom;verticalAlign=top;html=1;outlineConnect=0;" vertex="1" parent="1">
          <mxGeometry x="60" y="670" width="30" height="60" as="geometry" />
        </mxCell>
        <mxCell id="b-hoQS2coKFhY6Zg3zWE-48" value="Vendedor" style="shape=umlActor;verticalLabelPosition=bottom;verticalAlign=top;html=1;outlineConnect=0;" vertex="1" parent="1">
          <mxGeometry x="40" y="950" width="30" height="60" as="geometry" />
        </mxCell>
        <mxCell id="b-hoQS2coKFhY6Zg3zWE-49" value="Comprador" style="shape=umlActor;verticalLabelPosition=bottom;verticalAlign=top;html=1;outlineConnect=0;" vertex="1" parent="1">
          <mxGeometry x="90" y="800" width="30" height="60" as="geometry" />
        </mxCell>
        <mxCell id="b-hoQS2coKFhY6Zg3zWE-51" value="" style="endArrow=classic;html=1;rounded=0;fontSize=12;startSize=8;endSize=8;curved=1;exitX=0.5;exitY=0;exitDx=0;exitDy=0;exitPerimeter=0;entryX=1;entryY=1;entryDx=0;entryDy=0;entryPerimeter=0;" edge="1" parent="1" source="b-hoQS2coKFhY6Zg3zWE-49" target="b-hoQS2coKFhY6Zg3zWE-47">
          <mxGeometry width="50" height="50" relative="1" as="geometry">
            <mxPoint x="95" y="840" as="sourcePoint" />
            <mxPoint x="130" y="750" as="targetPoint" />
          </mxGeometry>
        </mxCell>
        <mxCell id="b-hoQS2coKFhY6Zg3zWE-52" value="" style="endArrow=classic;html=1;rounded=0;fontSize=12;startSize=8;endSize=8;curved=1;entryX=0;entryY=1;entryDx=0;entryDy=0;entryPerimeter=0;exitX=0.5;exitY=0;exitDx=0;exitDy=0;exitPerimeter=0;" edge="1" parent="1" source="b-hoQS2coKFhY6Zg3zWE-48" target="b-hoQS2coKFhY6Zg3zWE-47">
          <mxGeometry width="50" height="50" relative="1" as="geometry">
            <mxPoint x="40" y="920" as="sourcePoint" />
            <mxPoint x="40" y="770" as="targetPoint" />
          </mxGeometry>
        </mxCell>
        <mxCell id="b-hoQS2coKFhY6Zg3zWE-53" value="Comprar" style="ellipse;whiteSpace=wrap;html=1;" vertex="1" parent="1">
          <mxGeometry x="210" y="670" width="120" height="80" as="geometry" />
        </mxCell>
        <mxCell id="b-hoQS2coKFhY6Zg3zWE-54" value="Producto" style="shape=umlActor;verticalLabelPosition=bottom;verticalAlign=top;html=1;outlineConnect=0;" vertex="1" parent="1">
          <mxGeometry x="490" y="790" width="30" height="60" as="geometry" />
        </mxCell>
        <mxCell id="b-hoQS2coKFhY6Zg3zWE-55" value="Notificación" style="ellipse;whiteSpace=wrap;html=1;" vertex="1" parent="1">
          <mxGeometry x="500" y="950" width="120" height="80" as="geometry" />
        </mxCell>
        <mxCell id="b-hoQS2coKFhY6Zg3zWE-56" value="" style="endArrow=none;html=1;rounded=0;fontSize=12;startSize=8;endSize=8;curved=1;entryX=0;entryY=0.5;entryDx=0;entryDy=0;exitX=1;exitY=0.3333333333333333;exitDx=0;exitDy=0;exitPerimeter=0;" edge="1" parent="1" source="b-hoQS2coKFhY6Zg3zWE-47" target="b-hoQS2coKFhY6Zg3zWE-53">
          <mxGeometry width="50" height="50" relative="1" as="geometry">
            <mxPoint x="130" y="770" as="sourcePoint" />
            <mxPoint x="164" y="680" as="targetPoint" />
          </mxGeometry>
        </mxCell>
        <mxCell id="b-hoQS2coKFhY6Zg3zWE-59" value="" style="endArrow=none;html=1;rounded=0;fontSize=12;startSize=8;endSize=8;curved=1;entryX=0;entryY=0.3333333333333333;entryDx=0;entryDy=0;exitX=1;exitY=0.5;exitDx=0;exitDy=0;entryPerimeter=0;" edge="1" parent="1" source="b-hoQS2coKFhY6Zg3zWE-53" target="b-hoQS2coKFhY6Zg3zWE-54">
          <mxGeometry width="50" height="50" relative="1" as="geometry">
            <mxPoint x="370" y="810" as="sourcePoint" />
            <mxPoint x="490" y="830" as="targetPoint" />
          </mxGeometry>
        </mxCell>
        <mxCell id="b-hoQS2coKFhY6Zg3zWE-60" value="" style="endArrow=classic;html=1;rounded=0;fontSize=12;startSize=8;endSize=8;curved=1;entryX=0.5;entryY=0;entryDx=0;entryDy=0;exitX=1;exitY=1;exitDx=0;exitDy=0;" edge="1" parent="1" source="b-hoQS2coKFhY6Zg3zWE-53" target="b-hoQS2coKFhY6Zg3zWE-55">
          <mxGeometry width="50" height="50" relative="1" as="geometry">
            <mxPoint x="250" y="910" as="sourcePoint" />
            <mxPoint x="390" y="917" as="targetPoint" />
          </mxGeometry>
        </mxCell>
        <mxCell id="b-hoQS2coKFhY6Zg3zWE-61" value="include" style="edgeLabel;html=1;align=center;verticalAlign=middle;resizable=0;points=[];fontSize=12;rotation=55;" vertex="1" connectable="0" parent="b-hoQS2coKFhY6Zg3zWE-60">
          <mxGeometry x="-0.2153" y="-4" relative="1" as="geometry">
            <mxPoint x="7" y="-8" as="offset" />
          </mxGeometry>
        </mxCell>
        <mxCell id="b-hoQS2coKFhY6Zg3zWE-62" value="" style="endArrow=none;html=1;rounded=0;fontSize=12;startSize=8;endSize=8;curved=1;entryX=0;entryY=0;entryDx=0;entryDy=0;exitX=0.75;exitY=0.1;exitDx=0;exitDy=0;exitPerimeter=0;" edge="1" parent="1" source="b-hoQS2coKFhY6Zg3zWE-49" target="b-hoQS2coKFhY6Zg3zWE-55">
          <mxGeometry width="50" height="50" relative="1" as="geometry">
            <mxPoint x="210" y="880" as="sourcePoint" />
            <mxPoint x="330" y="900" as="targetPoint" />
            <Array as="points">
              <mxPoint x="310" y="700" />
            </Array>
          </mxGeometry>
        </mxCell>
        <mxCell id="b-hoQS2coKFhY6Zg3zWE-63" value="" style="endArrow=none;html=1;rounded=0;fontSize=12;startSize=8;endSize=8;curved=1;entryX=0.5;entryY=1;entryDx=0;entryDy=0;exitX=1;exitY=1;exitDx=0;exitDy=0;exitPerimeter=0;" edge="1" parent="1" source="b-hoQS2coKFhY6Zg3zWE-48" target="b-hoQS2coKFhY6Zg3zWE-55">
          <mxGeometry width="50" height="50" relative="1" as="geometry">
            <mxPoint x="200" y="950" as="sourcePoint" />
            <mxPoint x="320" y="970" as="targetPoint" />
            <Array as="points">
              <mxPoint x="280" y="1270" />
            </Array>
          </mxGeometry>
        </mxCell>
        <mxCell id="b-hoQS2coKFhY6Zg3zWE-64" value="Valoración" style="ellipse;whiteSpace=wrap;html=1;" vertex="1" parent="1">
          <mxGeometry x="150" y="920" width="120" height="80" as="geometry" />
        </mxCell>
        <mxCell id="b-hoQS2coKFhY6Zg3zWE-65" value="Comentario" style="ellipse;whiteSpace=wrap;html=1;" vertex="1" parent="1">
          <mxGeometry x="380" y="930" width="120" height="80" as="geometry" />
        </mxCell>
        <mxCell id="b-hoQS2coKFhY6Zg3zWE-66" value="" style="endArrow=classic;html=1;rounded=0;fontSize=12;startSize=8;endSize=8;curved=1;entryX=1;entryY=0.5;entryDx=0;entryDy=0;exitX=0;exitY=0.5;exitDx=0;exitDy=0;" edge="1" parent="1" source="b-hoQS2coKFhY6Zg3zWE-65" target="b-hoQS2coKFhY6Zg3zWE-64">
          <mxGeometry width="50" height="50" relative="1" as="geometry">
            <mxPoint x="454" y="1090" as="sourcePoint" />
            <mxPoint x="300" y="1160" as="targetPoint" />
          </mxGeometry>
        </mxCell>
        <mxCell id="b-hoQS2coKFhY6Zg3zWE-67" value="extend" style="edgeLabel;html=1;align=center;verticalAlign=middle;resizable=0;points=[];fontSize=12;rotation=5;" vertex="1" connectable="0" parent="b-hoQS2coKFhY6Zg3zWE-66">
          <mxGeometry x="-0.2153" y="-4" relative="1" as="geometry">
            <mxPoint x="-12" y="6" as="offset" />
          </mxGeometry>
        </mxCell>
        <mxCell id="b-hoQS2coKFhY6Zg3zWE-69" value="" style="endArrow=classic;html=1;rounded=0;fontSize=12;startSize=8;endSize=8;curved=1;entryX=0;entryY=1;entryDx=0;entryDy=0;exitX=1;exitY=0.3333333333333333;exitDx=0;exitDy=0;exitPerimeter=0;" edge="1" parent="1" source="b-hoQS2coKFhY6Zg3zWE-48" target="b-hoQS2coKFhY6Zg3zWE-64">
          <mxGeometry width="50" height="50" relative="1" as="geometry">
            <mxPoint x="100" y="940" as="sourcePoint" />
            <mxPoint x="240" y="947" as="targetPoint" />
          </mxGeometry>
        </mxCell>
        <mxCell id="b-hoQS2coKFhY6Zg3zWE-70" value="include" style="edgeLabel;html=1;align=center;verticalAlign=middle;resizable=0;points=[];fontSize=12;rotation=5;" vertex="1" connectable="0" parent="b-hoQS2coKFhY6Zg3zWE-69">
          <mxGeometry x="-0.2153" y="-4" relative="1" as="geometry">
            <mxPoint x="7" y="-8" as="offset" />
          </mxGeometry>
        </mxCell>
        <mxCell id="b-hoQS2coKFhY6Zg3zWE-71" value="" style="endArrow=classic;html=1;rounded=0;fontSize=12;startSize=8;endSize=8;curved=1;entryX=1;entryY=0;entryDx=0;entryDy=0;exitX=1;exitY=0.3333333333333333;exitDx=0;exitDy=0;exitPerimeter=0;" edge="1" parent="1" source="b-hoQS2coKFhY6Zg3zWE-49" target="b-hoQS2coKFhY6Zg3zWE-64">
          <mxGeometry width="50" height="50" relative="1" as="geometry">
            <mxPoint x="230" y="810" as="sourcePoint" />
            <mxPoint x="328" y="828" as="targetPoint" />
          </mxGeometry>
        </mxCell>
        <mxCell id="b-hoQS2coKFhY6Zg3zWE-72" value="include" style="edgeLabel;html=1;align=center;verticalAlign=middle;resizable=0;points=[];fontSize=12;rotation=35;" vertex="1" connectable="0" parent="b-hoQS2coKFhY6Zg3zWE-71">
          <mxGeometry x="-0.2153" y="-4" relative="1" as="geometry">
            <mxPoint x="7" y="-8" as="offset" />
          </mxGeometry>
        </mxCell>
        <mxCell id="b-hoQS2coKFhY6Zg3zWE-73" value="" style="endArrow=none;html=1;rounded=0;fontSize=12;startSize=8;endSize=8;curved=1;entryX=0.5;entryY=0;entryDx=0;entryDy=0;exitX=1;exitY=1;exitDx=0;exitDy=0;exitPerimeter=0;" edge="1" parent="1" source="b-hoQS2coKFhY6Zg3zWE-49" target="b-hoQS2coKFhY6Zg3zWE-64">
          <mxGeometry width="50" height="50" relative="1" as="geometry">
            <mxPoint x="190" y="1050" as="sourcePoint" />
            <mxPoint x="310" y="1112" as="targetPoint" />
          </mxGeometry>
        </mxCell>
        <mxCell id="b-hoQS2coKFhY6Zg3zWE-74" value="" style="endArrow=none;html=1;rounded=0;fontSize=12;startSize=8;endSize=8;curved=1;entryX=0;entryY=0;entryDx=0;entryDy=0;exitX=0.75;exitY=0.1;exitDx=0;exitDy=0;exitPerimeter=0;" edge="1" parent="1" source="b-hoQS2coKFhY6Zg3zWE-48" target="b-hoQS2coKFhY6Zg3zWE-64">
          <mxGeometry width="50" height="50" relative="1" as="geometry">
            <mxPoint x="150" y="1000" as="sourcePoint" />
            <mxPoint x="240" y="1060" as="targetPoint" />
          </mxGeometry>
        </mxCell>
        <mxCell id="b-hoQS2coKFhY6Zg3zWE-75" value="" style="endArrow=none;dashed=1;html=1;rounded=0;fontSize=12;startSize=8;endSize=8;curved=1;" edge="1" parent="1">
          <mxGeometry width="50" height="50" relative="1" as="geometry">
            <mxPoint y="1210" as="sourcePoint" />
            <mxPoint x="840" y="1220" as="targetPoint" />
          </mxGeometry>
        </mxCell>
        <mxCell id="b-hoQS2coKFhY6Zg3zWE-76" value="Usuario" style="shape=umlActor;verticalLabelPosition=bottom;verticalAlign=top;html=1;outlineConnect=0;" vertex="1" parent="1">
          <mxGeometry x="50" y="1260" width="30" height="60" as="geometry" />
        </mxCell>
        <mxCell id="b-hoQS2coKFhY6Zg3zWE-77" value="Reportar" style="ellipse;whiteSpace=wrap;html=1;" vertex="1" parent="1">
          <mxGeometry x="160" y="1300" width="120" height="80" as="geometry" />
        </mxCell>
        <mxCell id="b-hoQS2coKFhY6Zg3zWE-78" value="Producto" style="shape=umlActor;verticalLabelPosition=bottom;verticalAlign=top;html=1;outlineConnect=0;" vertex="1" parent="1">
          <mxGeometry x="360" y="1220" width="30" height="60" as="geometry" />
        </mxCell>
        <mxCell id="b-hoQS2coKFhY6Zg3zWE-79" value="Comentario" style="shape=umlActor;verticalLabelPosition=bottom;verticalAlign=top;html=1;outlineConnect=0;" vertex="1" parent="1">
          <mxGeometry x="470" y="1250" width="30" height="60" as="geometry" />
        </mxCell>
        <mxCell id="b-hoQS2coKFhY6Zg3zWE-82" value="Empleado" style="shape=umlActor;verticalLabelPosition=bottom;verticalAlign=top;html=1;outlineConnect=0;" vertex="1" parent="1">
          <mxGeometry x="200" y="1430" width="30" height="60" as="geometry" />
        </mxCell>
        <mxCell id="b-hoQS2coKFhY6Zg3zWE-84" value="Eliminar" style="ellipse;whiteSpace=wrap;html=1;" vertex="1" parent="1">
          <mxGeometry x="330" y="1430" width="120" height="80" as="geometry" />
        </mxCell>
        <mxCell id="b-hoQS2coKFhY6Zg3zWE-85" value="" style="endArrow=none;html=1;rounded=0;fontSize=12;startSize=8;endSize=8;curved=1;exitX=1;exitY=0.3333333333333333;exitDx=0;exitDy=0;exitPerimeter=0;entryX=0;entryY=0;entryDx=0;entryDy=0;" edge="1" parent="1" source="b-hoQS2coKFhY6Zg3zWE-76" target="b-hoQS2coKFhY6Zg3zWE-77">
          <mxGeometry width="50" height="50" relative="1" as="geometry">
            <mxPoint x="390" y="1330" as="sourcePoint" />
            <mxPoint x="440" y="1280" as="targetPoint" />
          </mxGeometry>
        </mxCell>
        <mxCell id="b-hoQS2coKFhY6Zg3zWE-86" value="" style="endArrow=classic;html=1;rounded=0;fontSize=12;startSize=8;endSize=8;curved=1;entryX=0.5;entryY=0;entryDx=0;entryDy=0;exitX=1;exitY=1;exitDx=0;exitDy=0;entryPerimeter=0;" edge="1" parent="1" source="b-hoQS2coKFhY6Zg3zWE-77" target="b-hoQS2coKFhY6Zg3zWE-82">
          <mxGeometry width="50" height="50" relative="1" as="geometry">
            <mxPoint x="280" y="1430" as="sourcePoint" />
            <mxPoint x="412" y="1542" as="targetPoint" />
          </mxGeometry>
        </mxCell>
        <mxCell id="b-hoQS2coKFhY6Zg3zWE-87" value="include" style="edgeLabel;html=1;align=center;verticalAlign=middle;resizable=0;points=[];fontSize=12;rotation=35;" vertex="1" connectable="0" parent="b-hoQS2coKFhY6Zg3zWE-86">
          <mxGeometry x="-0.2153" y="-4" relative="1" as="geometry">
            <mxPoint x="7" y="-8" as="offset" />
          </mxGeometry>
        </mxCell>
        <mxCell id="b-hoQS2coKFhY6Zg3zWE-88" value="" style="endArrow=classic;html=1;rounded=0;fontSize=12;startSize=8;endSize=8;curved=1;entryX=1;entryY=0.3333333333333333;entryDx=0;entryDy=0;exitX=0;exitY=0.5;exitDx=0;exitDy=0;entryPerimeter=0;" edge="1" parent="1" source="b-hoQS2coKFhY6Zg3zWE-84" target="b-hoQS2coKFhY6Zg3zWE-82">
          <mxGeometry width="50" height="50" relative="1" as="geometry">
            <mxPoint x="410" y="1460" as="sourcePoint" />
            <mxPoint x="300" y="1450" as="targetPoint" />
          </mxGeometry>
        </mxCell>
        <mxCell id="b-hoQS2coKFhY6Zg3zWE-89" value="extend" style="edgeLabel;html=1;align=center;verticalAlign=middle;resizable=0;points=[];fontSize=12;rotation=5;" vertex="1" connectable="0" parent="b-hoQS2coKFhY6Zg3zWE-88">
          <mxGeometry x="-0.2153" y="-4" relative="1" as="geometry">
            <mxPoint x="-12" y="6" as="offset" />
          </mxGeometry>
        </mxCell>
        <mxCell id="b-hoQS2coKFhY6Zg3zWE-90" value="" style="endArrow=none;html=1;rounded=0;fontSize=12;startSize=8;endSize=8;curved=1;entryX=0;entryY=0;entryDx=0;entryDy=0;" edge="1" parent="1" source="b-hoQS2coKFhY6Zg3zWE-78" target="b-hoQS2coKFhY6Zg3zWE-84">
          <mxGeometry width="50" height="50" relative="1" as="geometry">
            <mxPoint x="370" y="1350" as="sourcePoint" />
            <mxPoint x="468" y="1382" as="targetPoint" />
          </mxGeometry>
        </mxCell>
        <mxCell id="b-hoQS2coKFhY6Zg3zWE-91" value="" style="endArrow=none;html=1;rounded=0;fontSize=12;startSize=8;endSize=8;curved=1;entryX=1;entryY=0;entryDx=0;entryDy=0;" edge="1" parent="1" source="b-hoQS2coKFhY6Zg3zWE-79" target="b-hoQS2coKFhY6Zg3zWE-84">
          <mxGeometry width="50" height="50" relative="1" as="geometry">
            <mxPoint x="290" y="1400" as="sourcePoint" />
            <mxPoint x="388" y="1432" as="targetPoint" />
          </mxGeometry>
        </mxCell>
      </root>
    </mxGraphModel>
  </diagram>
</mxfile>
